<?xml version="1.0" encoding="utf-8"?>
<!-- Generator: Adobe Illustrator 24.2.0, SVG Export Plug-In . SVG Version: 6.00 Build 0)  -->
<svg version="1.1" id="Capa_1" xmlns="http://www.w3.org/2000/svg" xmlns:xlink="http://www.w3.org/1999/xlink" x="0px" y="0px"
	 viewBox="0 0 1366 397" style="enable-background:new 0 0 1366 397;" xml:space="preserve">
<path d="M1271.31,365.38h66.39V129.87h-66.39V365.38z M1269.97,87.7h69.53V24.45h-69.53V87.7z M1098.16,365.38h66.39v-92.86
	c0-48.9,26.02-81.64,75.81-81.64h7.18v-66.84c-18.84,0-32.3,1.8-45.31,7.63c-17.05,7.63-30.5,24.22-39.92,42.62v-44.41h-64.15
	V365.38z M914.24,224.52c0-32.3,21.08-49.35,48.9-49.35c26.47,0,47.1,17.49,47.1,49.35H914.24z M963.14,372.55
	c67.29,0,109.01-44.41,113.05-84.78h-65.05c-4.04,16.6-20.63,32.3-45.76,32.3c-30.06,0-48-21.08-51.59-54.73h161.94v-28.26
	c0-72.67-49.79-114.39-113.94-114.39c-71.33,0-113.94,51.14-113.94,124.71C847.85,320.07,889.57,372.55,963.14,372.55
	 M759.03,365.38h66.39V129.87h-66.39V365.38z M757.69,87.7h69.53V24.45h-69.53V87.7z M592.61,365.38h65.94l89.27-235.51h-68.63
	l-45.31,143.1l-7.63,24.22h-0.9l-8.07-24.22l-45.31-143.1h-68.63L592.61,365.38z M423.05,365.38h66.39V129.87h-66.39V365.38z
	 M421.7,87.7h69.53V24.45H421.7V87.7z M329.3,365.38h66.39V24.45H329.3V365.38z M165.56,372.55c107.66,0,139.06-60.11,139.06-150.73
	V24.45h-67.29v173.61c0,67.74-4.04,114.84-71.78,114.84s-72.22-47.1-72.22-114.84V24.45H26.5v197.38
	C26.5,310.2,56.56,372.55,165.56,372.55"/>
</svg>
