<?xml version="1.0" encoding="utf-8"?>
<!-- Generator: Adobe Illustrator 24.2.0, SVG Export Plug-In . SVG Version: 6.00 Build 0)  -->
<svg version="1.1" id="Capa_1" xmlns="http://www.w3.org/2000/svg" xmlns:xlink="http://www.w3.org/1999/xlink" x="0px" y="0px"
	 viewBox="0 0 58.5 57.8" style="enable-background:new 0 0 58.5 57.8;" xml:space="preserve">
<style type="text/css">
	.st0{fill:#1D1D1B;}
</style>
<g>
	<polygon class="st0" points="26.6,32.4 29.2,29.7 31.9,32.3 32.7,31.5 30,28.9 32.6,26.2 31.9,25.4 29.2,28.1 26.6,25.5 25.8,26.3 
		28.5,28.9 25.8,31.6 	"/>
	<g>
		<g>
			<path class="st0" d="M21.1,37.1c-1-1-1.9-2.3-2.5-3.7c-1.2-2.8-1.2-6-0.1-8.8c1.2-2.9,3.4-5.1,6.2-6.3c2.8-1.2,6-1.2,8.8-0.1
				c2.9,1.2,5.1,3.4,6.3,6.2c1.2,2.8,1.2,6,0.1,8.8c-1.2,2.9-3.4,5.1-6.2,6.3c-2.8,1.2-6,1.2-8.8,0.1C23.4,39,22.1,38.2,21.1,37.1z
				 M36.7,21.4c-1-1-2.2-1.8-3.5-2.3c-2.6-1.1-5.5-1-8.1,0.1c-2.6,1.1-4.6,3.1-5.7,5.8c-1.1,2.6-1,5.5,0.1,8.1l0,0
				c1.1,2.6,3.1,4.6,5.8,5.7c2.6,1.1,5.5,1,8.1-0.1c2.6-1.1,4.6-3.1,5.7-5.8c1.1-2.6,1-5.5-0.1-8.1C38.4,23.5,37.6,22.4,36.7,21.4z"
				/>
		</g>
	</g>
</g>
</svg>
