<?xml version="1.0" encoding="utf-8"?>
<!-- Generator: Adobe Illustrator 24.2.0, SVG Export Plug-In . SVG Version: 6.00 Build 0)  -->
<svg version="1.1" id="Capa_1" xmlns="http://www.w3.org/2000/svg" xmlns:xlink="http://www.w3.org/1999/xlink" x="0px" y="0px"
	 viewBox="0 0 58.5 57.8" style="enable-background:new 0 0 58.5 57.8;" xml:space="preserve">
<style type="text/css">
	.st0{fill:#1D1D1B;}
</style>
<g>
	<polygon class="st0" points="29.8,33.2 29.8,29.4 33.5,29.4 33.5,28.3 29.8,28.3 29.7,24.6 28.6,24.6 28.7,28.4 24.9,28.4 
		24.9,29.5 28.7,29.5 28.7,33.2 	"/>
	<g>
		<g>
			<path class="st0" d="M29.2,40.5c-1.5,0-2.9-0.3-4.3-0.8c-2.9-1.2-5.1-3.4-6.3-6.2c-1.2-2.8-1.2-6-0.1-8.8
				c1.2-2.9,3.4-5.1,6.2-6.3c2.8-1.2,6-1.2,8.8-0.1c2.9,1.2,5.1,3.4,6.3,6.2c1.2,2.8,1.2,6,0.1,8.8c-1.2,2.9-3.4,5.1-6.2,6.3
				C32.3,40.2,30.8,40.5,29.2,40.5z M29.2,18.4c-1.4,0-2.8,0.3-4.1,0.8c-2.6,1.1-4.6,3.1-5.7,5.8c-1.1,2.6-1,5.5,0.1,8.1
				c1.1,2.6,3.1,4.6,5.8,5.7l0,0c2.6,1.1,5.5,1,8.1-0.1c2.6-1.1,4.6-3.1,5.7-5.8c1.1-2.6,1-5.5-0.1-8.1c-1.1-2.6-3.1-4.6-5.8-5.7
				C31.9,18.6,30.6,18.4,29.2,18.4z"/>
		</g>
	</g>
</g>
</svg>
