<svg version="1.2" baseProfile="tiny-ps" xmlns="http://www.w3.org/2000/svg" viewBox="0 0 385 385" width="385" height="385">
	<title>copywritting_blk-svg</title>
	<style>
		tspan { white-space:pre }
		.shp0 { fill: #ffffff } 
		.shp1 { fill: #1d1d1b } 
	</style>
	<path id="Layer" class="shp0" d="M192 382.6C297 382.6 382.1 297.5 382.1 192.5C382.1 87.5 297 2.4 192 2.4C87 2.4 1.9 87.5 1.9 192.5C1.9 297.5 87 382.6 192 382.6Z" />
	<path id="Layer" fill-rule="evenodd" class="shp1" d="M358.3 120.4C361.7 128.2 361 134.6 354.1 139.5L351.9 134.4C355.6 131.5 355.7 127.2 353.7 122.6C350.7 115.5 345.8 115.1 337.3 118.7L335.5 119.5C340.6 120.3 343.9 123.5 345.8 127.9C349.7 137 344.7 145 334.9 149.2C326 153 316.9 152.2 312.7 142.3C310.8 137.9 310.6 133.2 313.9 128.7L309 130.8L306.8 125.7L336.5 113C349.7 107.4 355.1 112.6 358.3 120.4ZM316.9 139.3C319.8 145.9 326.1 147.3 333.1 144.3C340.2 141.2 343.7 135.6 340.9 128.9C338.3 122.9 332.6 120.6 326 123.4L322.3 125C316.5 127.5 314.4 133.4 316.9 139.3ZM320.6 170.3C319.4 162.8 324.3 157.2 332 156L353.2 152.6L354.1 158L334.2 161.2C328.2 162.1 324.8 165.5 325.6 170.7C326.5 176 331.3 180 338.3 178.9L357 175.9L357.9 181.3L324.3 186.8L323.4 181.4L328.5 180.6C323.5 178.6 321.2 174.1 320.6 170.3ZM357.4 199.6L323.4 199L323.5 193.5L357.5 194.1L357.4 199.6ZM314.2 199.1L308.1 199L308.2 192.8L314.3 192.9L314.2 199.1ZM346.1 222L325.7 218.9L325 223.5L321 222.9C321.7 218.8 320 217.8 316 217.2L312.5 216.7L313.3 211.5L322 212.8L323.2 205.1L327.8 205.8L326.6 213.5L346 216.4C350.5 217 352 215.8 352.6 211.6C352.7 211 352.8 210.3 352.8 209.3L357.2 210C357.1 211.5 357 212.6 356.9 213.3C355.8 220.8 352.2 222.9 346.1 222ZM349.9 242.5L317.1 233.4L318.6 228.1L351.4 237.2L349.9 242.5ZM308.2 231.3L302.3 229.7L304 223.7L309.9 225.3L308.2 231.3ZM313.9 243.3C313.9 241.2 314.4 239.4 315.3 237.2L320.7 239.5L320.1 240.8C317.9 245.9 319.9 252.2 326.4 255L342.6 261.9L340.4 267L309.1 253.6L311.1 248.8L316.7 251.2C314.7 248.9 313.8 246 313.9 243.3ZM307.9 301.6L291.9 278.6L296 273.5L322.1 283.7L322.2 283.6L306.9 259.7L310.8 254.8L329.4 286.1L326.2 290.2L299.1 280.1L299 280.2L315.1 304.2L311.9 308.3L279.53 298.13L286.6 325.3L292.5 344.2L288.2 347.3L283.4 331.6L253 311.6L258 308L278.7 322.6L281.5 324.4L281.6 324.3L280.7 321.1L273.3 297L278.3 293.4L278.81 295.37L281.1 292.5L307.9 301.8L307.9 301.6ZM261.3 325.8C265.5 335.9 262.6 344.9 254.1 348.4C249.8 350.2 244.6 349.9 241.2 347.9L248.8 366.3L243.7 368.4L224.8 322.6L229.7 320.6L231.5 324.9C232.8 320.7 236.1 316.9 240.1 315.2C248.7 311.6 257.2 315.9 261.3 325.8ZM256.3 328.1C253.2 320.7 247.3 317.5 241.4 319.9C235.4 322.4 233.2 328.3 235.8 334.7L237.3 338.4C239.7 344.3 245.4 346.6 251.5 344.1C257.3 341.7 259.2 335.3 256.3 328.1ZM193.2 344.1C191.8 333.7 197.3 325.3 206.9 324C216.6 322.6 224 329.2 225.4 339.6C226.8 349.6 221.5 358.4 211.8 359.7C202.1 361.1 194.5 354.1 193.2 344.1ZM219.8 340.4C218.8 332.8 214.3 327.9 207.4 328.9C200.5 329.8 197.5 335.7 198.6 343.3C199.7 351 204.1 355.9 211 354.9C218 353.9 220.9 348.1 219.8 340.4ZM146.3 331.2C148.4 315.8 159.1 306.9 172.9 308.8C183.9 310.3 191.5 318.6 191.7 329.8L185.9 329C185.6 321.2 179.8 315.3 171.7 314.2C161.7 312.8 154 319.7 152.3 331.8C150.7 343.8 156.4 352.6 166.4 354C174.4 355.1 181.5 351 183.9 343.5L189.7 344.3C186.6 355.1 176.8 361 165.7 359.5C152.2 357.7 144.2 346.4 146.3 331.2Z" />
</svg>