<svg width="374" height="246" viewBox="0 0 374 246" fill="none" xmlns="http://www.w3.org/2000/svg">
<path d="M187 0.600006L0.400024 112.5V245.2H373.6V112.5L187 0.600006Z" fill="black"/>
<path fill-rule="evenodd" clip-rule="evenodd" d="M343.5 159.4C341.2 162.6 336.3 164.8 331.6 164.8C322.4 164.8 316.3 157.6 316.3 146.7C316.3 136 322.5 128.8 332 128.8C336.3 128.8 340.6 131.1 343.3 134.5V114.6H348.8V163.8H343.5V159.4ZM332.4 133.7C326 133.7 321.8 138.8 321.8 146.6C321.8 154.6 326.1 159.8 332.6 159.8C339.1 159.8 343.3 155.2 343.3 148.3V144.3C343.3 138 339 133.8 332.4 133.7ZM279.7 154.1C279.7 151.1 281 148.4 283.5 146.5C286.4 144.3 290.9 142.9 301.6 142.9H303.3V140.9C303.3 136.7 301.2 133.8 295.3 133.8C289 133.8 287 136.9 286.9 139.4H281.5C281.6 135 284.4 128.8 295.5 128.8C303.4 128.8 308.9 132 308.9 143.3V155.5C308.9 158.7 309.6 159.5 312.6 159.3V164.3H312.7C308 164.5 304.6 162.4 304.1 159.1H304C301.6 162.2 296.5 164.5 291.7 164.5C282.7 164.5 279.8 158.9 279.7 154.1ZM303.5 152.5V147.3H301.4C292.6 147.3 285.2 148.3 285.2 154.3C285.2 157.6 287.6 159.7 292.5 159.7C299.8 159.7 303.5 155.1 303.5 152.5ZM270.1 159.4C267.8 162.6 262.9 164.8 258.2 164.8C249 164.8 242.9 157.6 242.9 146.7C242.9 136 249.1 128.8 258.6 128.8C262.9 128.8 267.2 131.1 269.9 134.5V114.6H275.4V163.8H270.1V159.4ZM259 133.7C252.6 133.7 248.4 138.8 248.4 146.6C248.4 154.6 252.7 159.8 259.2 159.8C265.7 159.8 269.9 155.2 269.9 148.3V144.3C269.9 138 265.6 133.8 259 133.7ZM236.7 163.8H231.2V129.8H236.7V163.8ZM237.1 120.7H230.9V114.6H237.1V120.7ZM211.6 156.7H211.7L213.1 152.9L221 129.8H227.2L214.2 163.8H209L196 129.8H202.2L210.1 152.9L211.6 156.7ZM191.8 163.8H186.3V129.8H191.8V163.8ZM192.2 120.7H186V114.6H192.2V120.7ZM167.8 155.1V134.5H163.1V130.4C167.2 130.4 168 128.7 168 124.6V121.1H173.2V129.8H181V134.5H173.2V154.1C173.2 158.6 174.6 159.9 178.9 159.9C179.5 159.9 180.2 159.9 181.2 159.8V164.3C179.7 164.4 178.6 164.5 177.9 164.5C170.3 164.5 167.7 161.3 167.8 155.1ZM128.1 154.1C128.1 151.1 129.4 148.4 131.9 146.5C134.8 144.3 139.3 142.9 150 142.9H151.7V140.9C151.7 136.7 149.6 133.8 143.7 133.8C137.4 133.8 135.4 136.9 135.3 139.4H129.9C130 135 132.8 128.8 143.9 128.8C151.8 128.8 157.3 132 157.3 143.3V155.5C157.3 158.7 158 159.5 161 159.3V164.3H161.1C156.4 164.5 153 162.4 152.5 159.1H152.4C150 162.2 144.9 164.5 140.1 164.5C131 164.5 128.2 158.9 128.1 154.1ZM151.9 152.5V147.3H149.8C141 147.3 133.6 148.3 133.6 154.3C133.6 157.6 136 159.7 140.9 159.7C148.2 159.7 151.8 155.1 151.9 152.5ZM93.8 146.6C93.8 136.2 99.6 128.7 109.6 128.7C118.5 128.7 124.7 134.6 124.7 143.2V148.8L99.5 148.9C100.1 155.6 103.6 159.9 109.8 159.9C115 159.9 118.3 156.7 119.3 154.3H124.7C124 158.6 119.3 164.9 109.9 164.9C99.3 164.9 93.7 157 93.8 146.6ZM109.4 133.7C104.2 133.7 99.5 136.8 99.5 144.1H119.2C119.2 136.9 114.8 133.7 109.4 133.7ZM87.3 130.1C89.2 129.3 91.1 129 93.5 129V134.8H92.1C86.5 134.8 81.5 139.1 81.5 146.2V163.8H76V129.8H81.2V135.9C82.5 133.2 84.8 131.2 87.3 130.1ZM25.1 139.5C25.1 123.9 34.5 113.6 48.4 113.6C59.5 113.6 68.2 120.8 69.9 131.9H64C62.6 124.2 56.1 119.2 47.9 119.2C37.8 119.2 31.1 127.1 31.1 139.3C31.1 151.4 38 159.4 48.1 159.4C56.2 159.4 62.6 154.3 64 146.6H69.9C68.3 157.7 59.4 164.9 48.2 164.9C34.6 164.9 25.1 154.8 25.1 139.5Z" fill="white"/>
</svg>
