<svg width="571" height="255" viewBox="0 0 571 255" fill="none" xmlns="http://www.w3.org/2000/svg">
<path d="M216.42 6.88L0.830017 255H0.890017L359.1 248.75L570.62 0.699997L216.42 6.88Z" fill="white"/>
<path d="M142.89 156.32L172.95 143.87L175.03 148.9L150.18 159.19L155.91 173.02L178.24 163.77L180.4 168.98L158.07 178.23L164.87 194.64L190.73 183.93L192.81 188.96L161.74 201.83L142.89 156.32Z" fill="black"/>
<path d="M192.97 176.82L198.12 174.69C201.5 179.46 205.68 179.56 211.48 177.15C215.19 175.61 216.97 173.12 215.65 169.95C214.31 166.72 210.73 166.87 207.23 167.4C198.47 168.78 192.18 169.85 189.36 163.37C186.39 156.53 191.6 151.5 198.24 148.75C205.54 145.72 211.37 148.43 214.16 154.5L209.01 156.63C206.53 151.83 202.55 152.22 199.62 153.43C196.39 154.77 192.66 156.94 194.27 160.84C195.53 163.89 198.1 163.81 205.01 162.56C210.43 161.58 217.44 160.22 220.41 167.4C223.16 174.05 220.31 178.67 212.82 181.77C202.36 186.11 195.98 182.73 192.97 176.82Z" fill="black"/>
<path d="M226.27 165.62L218.38 146.58L214.07 148.37L212.51 144.6C216.34 143.01 216.39 141.1 214.83 137.33L213.49 134.1L218.34 132.09L221.69 140.17L228.87 137.19L230.66 141.5L223.48 144.48L230.99 162.62C232.73 166.81 234.54 167.46 238.49 165.83C238.97 165.63 239.63 165.36 240.54 164.84L242.25 168.97C240.92 169.66 239.93 170.14 239.27 170.41C232.27 173.31 228.66 171.37 226.27 165.62Z" fill="black"/>
<path d="M244.12 131.15C245.53 129.65 247.17 128.69 249.39 127.78L251.62 133.17L250.3 133.72C245.15 135.85 242.2 141.77 244.91 148.3L251.66 164.59L246.57 166.7L233.55 135.27L238.34 133.29L240.67 138.92C240.91 135.92 242.23 133.19 244.12 131.15Z" fill="black"/>
<path d="M260.65 150.4C259.48 147.59 259.61 144.66 261.2 141.9C262.99 138.77 266.66 135.78 276.54 131.69L278.16 131.02L277.39 129.16C275.78 125.27 272.75 123.37 267.3 125.62C261.43 128.05 260.8 131.61 261.65 133.99L256.62 136.07C255.05 131.95 255.27 125.19 265.51 120.95C272.81 117.92 279.14 118.81 283.46 129.23L288.15 140.55C289.37 143.48 290.32 143.93 293 142.61L294.91 147.22L294.97 147.2C290.67 149.19 286.68 148.53 285 145.65L284.94 145.68C283.91 149.47 280.08 153.59 275.65 155.42C267.25 158.88 262.46 154.77 260.65 150.4ZM281.88 139.85L279.87 135L277.95 135.79C269.81 139.16 263.38 142.95 265.66 148.46C266.93 151.51 269.96 152.57 274.51 150.69C281.28 147.88 282.85 142.18 281.88 139.85Z" fill="black"/>
<path d="M297.57 136.08L289.68 117.04L285.37 118.83L283.81 115.06C287.64 113.47 287.69 111.56 286.13 107.79L284.79 104.56L289.64 102.55L292.99 110.63L300.17 107.65L301.96 111.96L294.78 114.94L302.29 133.08C304.03 137.27 305.84 137.92 309.79 136.29C310.27 136.09 310.93 135.82 311.84 135.3L313.55 139.43C312.22 140.12 311.23 140.6 310.57 140.88C303.57 143.77 299.96 141.83 297.57 136.08Z" fill="black"/>
<path d="M308.86 122.36C304.84 112.66 307.38 103.54 316.6 99.72C324.8 96.32 332.81 99.39 336.1 107.35L338.26 112.56L315 122.27C318.07 128.15 322.96 130.82 328.71 128.44C333.5 126.46 335.25 122.22 335.29 119.61L340.32 117.53C341.36 121.73 339.39 129.35 330.71 132.94C320.96 136.99 312.78 131.82 308.86 122.36ZM318.37 104.32C313.52 106.33 310.42 111.05 313.2 117.75L331.4 110.21C328.62 103.51 323.34 102.27 318.37 104.32Z" fill="black"/>
<path d="M369.08 132.77C361.18 136.04 354.81 135.24 349.99 128.33L355.14 126.2C358.01 129.92 362.34 130.02 366.94 128.11C374.06 125.16 374.58 120.31 371.04 111.75L370.27 109.89C369.48 114.92 366.22 118.23 361.79 120.07C352.57 123.89 344.62 118.76 340.56 108.94C336.89 100.08 337.74 90.96 347.68 86.84C352.11 85 356.8 84.82 361.27 88.15L359.21 83.18L364.3 81.07L376.68 110.95C382.13 124.14 376.86 129.55 369.08 132.77ZM350.54 91.07C343.89 93.82 342.43 100.11 345.36 107.18C348.34 114.36 353.95 117.93 360.66 115.15C366.71 112.65 369.06 106.97 366.3 100.33L364.76 96.62C362.33 90.74 356.47 88.61 350.54 91.07Z" fill="black"/>
<path d="M367.2 70L364.87 64.37L370.62 61.99L372.95 67.62L367.2 70ZM384.02 109.75L371 78.32L376.09 76.21L389.11 107.64L384.02 109.75Z" fill="black"/>
<path d="M390.8 96.49C389.63 93.68 389.76 90.75 391.35 87.99C393.14 84.86 396.81 81.87 406.69 77.78L408.31 77.11L407.54 75.25C405.93 71.36 402.9 69.46 397.45 71.72C391.58 74.15 390.95 77.71 391.8 80.09L386.77 82.17C385.2 78.05 385.42 71.29 395.66 67.05C402.96 64.02 409.29 64.91 413.61 75.33L418.3 86.65C419.52 89.58 420.47 90.03 423.15 88.71L425.06 93.32L425.12 93.29C420.82 95.28 416.83 94.62 415.15 91.74L415.09 91.76C414.06 95.55 410.23 99.67 405.8 101.5C397.4 104.97 392.61 100.86 390.8 96.49ZM412.03 85.94L410.02 81.09L408.1 81.88C399.96 85.25 393.53 89.04 395.81 94.55C397.08 97.6 400.11 98.66 404.66 96.78C411.43 93.97 413 88.27 412.03 85.94Z" fill="black"/>
</svg>
