<svg width="386" height="385" viewBox="0 0 386 385" fill="none" xmlns="http://www.w3.org/2000/svg">
<path d="M193 0L56.9 56.4L0.5 192.5L56.9 328.6L193 385L329.1 328.6L385.5 192.5L329.1 56.4L193 0Z" fill="black"/>
<path d="M302.3 188.7L300.8 192.4C298.1 199.1 292.5 201.5 286.4 199C279.7 196.3 278.2 189.8 281.1 182.6C284 175.5 289.4 172.1 296.1 174.7C302 177.1 304.7 182.8 302.3 188.7ZM300.7 207.2L312.8 177.2L307.7 175.1L305.7 180.1C304.9 174.6 301.4 171.4 296.9 169.6C286.9 165.6 279.9 171.5 276.3 180.4C272.3 190.3 274.4 199.5 283.6 203.2C288 205 292.7 204.9 296.8 201.9L296 203.8C292.5 212.4 288.8 215.5 281.6 212.6C277 210.7 274 207.6 274.5 203L269.3 200.9C267.9 209.2 271.9 214.2 279.8 217.4C287.9 220.6 295.4 220.5 300.7 207.2ZM253.9 158.9L255.8 154.2L250.7 152.1L238 183.6L243.1 185.7L250.2 168.2C252.9 161.6 258.8 159.6 263.8 161.6C268.7 163.6 269.8 168.3 267.5 173.9L260 192.6L265.1 194.7L273.2 174.8C276.1 167.6 273.9 160.5 266.9 157.7C263.3 156.1 258.2 155.7 253.9 158.9ZM231.1 180.9L243.8 149.4L238.7 147.3L226 178.8L231.1 180.9ZM247.6 141L249.9 135.4L244.1 133.1L241.8 138.7L247.6 141ZM221 139C216.8 137.3 211.8 136.9 206.4 140.5C206.4 135.6 203.8 132.1 199 130.2C194.7 128.5 190 128.4 185.8 131.5L187.7 126.8L182.6 124.7L169.9 156.2L175 158.3L182.1 140.8C184.8 134.2 190.5 132.1 196.2 134.4C199.7 135.8 202.6 138.7 199.8 145.8L192 165.2L197.1 167.3L204.2 149.8C206.9 143.2 212.6 141.1 218.3 143.4C221.8 144.8 224.7 147.7 221.9 154.8L214.1 174.2L219.2 176.3L227 157C230.4 147.7 227.9 141.8 221 139ZM148.3 143C143.7 141.2 142.3 138.3 143.5 135.2C145.7 129.7 153 131.5 161.1 134.8L163 135.6L161 140.5C160.2 142.8 155 145.8 148.3 143ZM145.7 147.2C150.1 149 155.8 148.8 159.2 146.8H159.3C158.5 150 160.9 153.3 165.3 154.9H165.2L167.1 150.3C164.3 149.4 163.9 148.4 165.1 145.4L169.7 134C173.9 123.5 170 118.5 162.7 115.5C152.4 111.3 147.5 116 145.8 120.1L150.8 122.1C151.9 119.8 154.8 117.7 160.7 120.1C166.2 122.3 167 125.8 165.4 129.7L164.6 131.6L163 130.9C153.1 126.9 148.4 126.5 144.9 127.4C141.8 128.3 139.7 130.3 138.6 133.1C136.8 137.5 137.3 143.8 145.7 147.2ZM127.6 129.7L119.7 82.8L114.4 80.7L96 126.3L101.3 128.4L115.8 92.5L124 137.6L129.6 139.9L148 94.2L142.7 92.1L127.6 129.7Z" fill="white"/>
<path d="M315.3 258.7L315.4 262.7C315.6 269.9 311.4 274.3 304.8 274.5C297.5 274.7 293.6 269.3 293.4 261.6C293.2 254 296.8 248.6 304 248.4C310.5 248.3 315.2 252.3 315.3 258.7ZM321.3 276.4L320.5 244.1L315 244.2L315.1 249.6C312.1 244.9 307.7 243.4 302.9 243.5C292.1 243.8 288.1 252 288.3 261.6C288.6 272.2 294.2 279.9 304.1 279.6C308.9 279.5 313.1 277.5 315.7 273.1L315.8 275.1C316 284.4 313.8 288.7 306.1 288.9C301.1 289 297.1 287.4 295.8 282.9L290.2 283C292.2 291.2 297.9 294.2 306.4 294C314.8 293.8 321.7 290.6 321.3 276.4ZM259.1 250.8L259 245.7L253.5 245.8L254.4 279.8L259.9 279.7L259.4 260.8C259.2 253.7 263.8 249.5 269.3 249.3C274.5 249.2 277.4 253 277.6 259.1L278.1 279.2L283.6 279.1L283 257.6C282.8 249.8 278 244.2 270.4 244.4C266.5 244.4 261.7 246 259.1 250.8ZM246.9 280L246 246L240.5 246.1L241.4 280.1L246.9 280ZM246.2 236.8L246 230.7L239.8 230.9L240 237L246.2 236.8ZM228.5 261L228.6 265C228.8 271.9 224.7 276.6 218.2 276.8C211.7 277 207.3 271.8 207.1 263.9C206.9 256.1 211 250.9 217.4 250.7C224 250.5 228.4 254.6 228.5 261ZM229.2 280.5L234.5 280.4L233.2 231.2L227.7 231.3L228.2 251.2C225.4 247.8 221.1 245.7 216.8 245.8C207.3 246 201.2 253.4 201.5 264.2C201.8 275.1 208.1 282.2 217.3 281.9C222 281.8 226.8 279.4 229.1 276.2L229.2 280.5ZM171.5 253.1L171.4 248L165.9 248.1L166.8 282.1L172.3 282L171.8 263.1C171.6 256 176.2 251.8 181.7 251.6C186.9 251.5 189.8 255.3 190 261.4L190.5 281.5L196 281.4L195.4 259.9C195.2 252.1 190.4 246.5 182.8 246.7C179 246.7 174.2 248.3 171.5 253.1ZM141.7 278.7C136.8 278.8 134.3 276.8 134.2 273.5C134 267.5 141.4 266.3 150.2 266.1L152.3 266L152.4 271.2C152.6 273.7 149.1 278.5 141.7 278.7ZM141.1 283.5C145.9 283.4 150.9 280.9 153.3 277.7H153.4C153.9 281 157.4 283 162.2 282.7H162.1L162 277.7C159 278 158.3 277.2 158.2 274L157.9 261.8C157.6 250.5 152 247.4 144.1 247.6C133 247.9 130.4 254.1 130.4 258.5L135.8 258.4C135.9 255.9 137.7 252.8 144.1 252.6C150 252.4 152.1 255.3 152.3 259.5L152.4 261.5H150.7C140 261.8 135.5 263.3 132.7 265.5C130.2 267.5 129.1 270.2 129.1 273.2C129 278.2 132 283.7 141.1 283.5ZM114.4 255.5L114.2 249.4L109 249.5L109.9 283.5L115.4 283.4L114.9 265.8C114.7 258.7 119.6 254.3 125.2 254.1H126.6L126.4 248.3C124 248.4 122.1 248.7 120.3 249.6C117.9 250.8 115.7 252.8 114.4 255.5ZM86.2 278.9L73.5 279.2L73 261.1L85 260.8C93.4 260.6 97.7 264 97.8 269.4C98 275.7 93.1 278.8 86.2 278.9ZM83 255.3L72.9 255.6L72.5 240.6L83.9 240.3C91.4 240.1 94.6 243.3 94.7 247.9C94.8 252.7 90.4 255.1 83 255.3ZM83.6 235L66.7 235.4L68 284.6L88.3 284.1C99.1 283.8 103.7 278.1 103.5 269.7C103.3 262.6 98.3 258 93.7 257.6C97.2 256.4 100.5 252.5 100.4 247.7C100.1 238.9 93 234.8 83.6 235Z" fill="white"/>
</svg>
